<?xml version="1.0" encoding="UTF-8" standalone="no"?>
<!-- Created with Inkscape (http://www.inkscape.org/) -->

<svg
   width="136.63608mm"
   height="163.85167mm"
   viewBox="0 0 136.63609 163.85167"
   version="1.1"
   id="svg5"
   xml:space="preserve"
   sodipodi:docname="flint_logo_jena_2.svg"
   inkscape:version="1.2.1 (9c6d41e4, 2022-07-14)"
   inkscape:export-filename="flint_logo_jena_2.svg"
   inkscape:export-xdpi="96"
   inkscape:export-ydpi="96"
   xmlns:inkscape="http://www.inkscape.org/namespaces/inkscape"
   xmlns:sodipodi="http://sodipodi.sourceforge.net/DTD/sodipodi-0.dtd"
   xmlns="http://www.w3.org/2000/svg"
   xmlns:svg="http://www.w3.org/2000/svg"><sodipodi:namedview
     id="namedview112"
     pagecolor="#ffffff"
     bordercolor="#000000"
     borderopacity="0.25"
     inkscape:showpageshadow="2"
     inkscape:pageopacity="0.0"
     inkscape:pagecheckerboard="0"
     inkscape:deskcolor="#d1d1d1"
     inkscape:document-units="mm"
     showgrid="false"
     showguides="true"
     inkscape:zoom="1.0482463"
     inkscape:cx="5.7238456"
     inkscape:cy="290.96215"
     inkscape:window-width="1792"
     inkscape:window-height="982"
     inkscape:window-x="0"
     inkscape:window-y="25"
     inkscape:window-maximized="0"
     inkscape:current-layer="svg5" /><defs
     id="defs2" /><g
     inkscape:groupmode="layer"
     id="layer2"
     inkscape:label="Layer 2"
     transform="translate(-2.7119732)"><text
       xml:space="preserve"
       style="font-style:normal;font-variant:normal;font-weight:normal;font-stretch:normal;font-size:127px;font-family:Rockwell;-inkscape-font-specification:'Rockwell, Normal';font-variant-ligatures:normal;font-variant-caps:normal;font-variant-numeric:normal;font-variant-east-asian:normal;text-align:center;text-anchor:middle;fill:#5881d8;fill-opacity:1;stroke-width:1;stroke-linejoin:bevel"
       x="119.69034"
       y="96.484772"
       id="text5614"
       inkscape:label="text5614"><tspan
         sodipodi:role="line"
         id="tspan5612"
         style="font-style:normal;font-variant:normal;font-weight:normal;font-stretch:normal;font-size:127px;font-family:Rockwell;-inkscape-font-specification:'Rockwell, Normal';font-variant-ligatures:normal;font-variant-caps:normal;font-variant-numeric:normal;font-variant-east-asian:normal;fill:#5881d8;fill-opacity:1;stroke-width:1"
         x="119.69034"
         y="96.484772">J</tspan></text><text
       xml:space="preserve"
       style="font-style:normal;font-variant:normal;font-weight:normal;font-stretch:normal;font-size:127px;font-family:Rockwell;-inkscape-font-specification:'Rockwell, Normal';font-variant-ligatures:normal;font-variant-caps:normal;font-variant-numeric:normal;font-variant-east-asian:normal;text-align:center;text-anchor:middle;fill:#63b132;fill-opacity:1;stroke-width:1;stroke-linejoin:bevel"
       x="-22.369688"
       y="-45.188679"
       id="text5614-4"
       transform="scale(-1)"><tspan
         sodipodi:role="line"
         id="tspan5612-0"
         style="font-style:normal;font-variant:normal;font-weight:normal;font-stretch:normal;font-size:127px;font-family:Rockwell;-inkscape-font-specification:'Rockwell, Normal';font-variant-ligatures:normal;font-variant-caps:normal;font-variant-numeric:normal;font-variant-east-asian:normal;fill:#63b132;fill-opacity:1;stroke-width:1"
         x="-22.369688"
         y="-45.188679">J</tspan></text></g><g
     id="layer1"
     transform="translate(-35.181049,-20.429802)"><path
       style="fill:#80a2e4;fill-opacity:1;stroke:none;stroke-width:0.50138"
       d="m 95.956329,184.12715 c -2.378188,-0.4912 -28.734703,-6.12873 -29.027814,-6.20892 -0.280272,-0.0767 2.213491,-0.99349 11.934049,-4.38749 l 12.288361,-4.29057 8.974915,-1.39602 c 4.93619,-0.76781 9.08091,-1.39571 9.21046,-1.39532 0.12957,3.7e-4 8.42049,1.94661 18.42427,4.32493 l 18.18872,4.32423 0.81692,1.83398 c 0.44931,1.00869 0.82903,1.9935 0.84381,2.18846 l 0.0269,0.35447 -9.64822,2.22929 -9.64822,2.22928 -15.19717,0.1749 c -8.35844,0.0962 -15.478731,0.17408 -15.822861,0.17309 -0.34414,-9.9e-4 -0.95798,-0.0704 -1.36409,-0.15431 z"
       id="path6822" /><path
       style="fill:#90b4fe;fill-opacity:1;stroke:none;stroke-width:1.49088"
       d="m 87.855035,163.83186 c -2.592283,-3.98444 -31.321569,-49.71472 -31.641068,-50.36515 -0.305504,-0.62194 2.412762,-8.05895 13.00842,-35.590258 l 13.394625,-34.804028 9.782893,-11.32417 c 5.380592,-6.228293 9.898445,-11.321597 10.039665,-11.318451 0.14123,0.0032 9.17854,15.790379 20.08292,35.082746 l 19.82617,35.07704 0.89047,14.876821 c 0.48976,8.18226 0.90366,16.17075 0.91977,17.75221 l 0.0293,2.87539 -10.51681,18.08341 -10.5168,18.08341 -16.56531,1.4187 c -9.110917,0.78028 -16.872223,1.41211 -17.247343,1.40406 -0.375121,-0.008 -1.044223,-0.57132 -1.486892,-1.25173 z"
       id="path2431" /><path
       style="fill:#ffffff;fill-opacity:1;stroke-width:1"
       d="M 89.572546,49.726145 67.88134,111.54608 74.750222,118.41496 95.718388,45.026383 Z"
       id="path2487" /></g></svg>
